<svg id="egojNp4OVbG1" xmlns="http://www.w3.org/2000/svg" xmlns:xlink="http://www.w3.org/1999/xlink" viewBox="0 0 400 262.815884" shape-rendering="geometricPrecision" text-rendering="geometricPrecision"><g transform="matrix(.909635 0.415407-.415407 0.909635 72.703388-71.043706)" opacity="0.3"><path d="M178.339,22.247c-22.782,5.63-31.18,16.115-32.203,40.208l-.659,15.523h24.735c23.771,0,24.734.113,24.734,2.888c0,2.82-.963,2.889-40.491,2.889-44.055,0-46.445.39-54.372,8.889-16.288,17.462-15.834,60.636.819,77.8c8.073,8.321,13.451,10.042,31.415,10.053l13.183.008.591,17.765c1.071,32.158,15.452,44.411,52.465,44.702c38.436.301,54.695-12.169,54.813-42.039l.061-15.373-24.188-.396c-20.183-.331-24.188-.749-24.188-2.527c0-1.825,5.463-2.132,38.01-2.132c59.076,0,68.178-6.659,68.093-49.819-.067-34.516-10.92-46.837-41.311-46.9l-15.353-.031-.616-18.412c-.789-23.607-4.776-31.134-20.664-39.017-12.19-6.048-38.88-8.032-54.874-4.079M223.008,32.39c19.235,5.789,21.035,10.176,21.035,51.27v33.262l-4.21,4.716-4.211,4.716-36.584.722c-39.15.773-39.956.923-46.48,8.676-4.784,5.686-6.692,12.772-6.702,24.898l-.008,9.747h-14.949c-13.111,0-15.541-.399-19.77-3.249-16.029-10.803-18.28-51.3-3.74-67.285c6.611-7.268,7.897-7.444,54.331-7.444h43.451l-.419-11.914-.42-11.913-24.188-.396-24.187-.396v-8.701c0-24.257,32.363-37.149,67.051-26.709M168.313,47.975c-6.741,9.624,5.401,20.91,13.636,12.675c3.609-3.608,3.732-10.342.248-13.495-3.873-3.504-11.157-3.074-13.884.82M287.478,95.702c20.071,13.527,19.967,62.145-.156,72.551-3.401,1.759-12.071,2.144-48.261,2.144h-44.115v12.274v12.275h24.549h24.548v9.173c0,20.053-13.626,29.037-44.043,29.037-38.668,0-44.043-6.352-44.043-52.048c0-47.386-3.115-44.37,46.862-45.368c46.909-.936,49.658-2.589,51.057-30.686l.629-12.635h14.05c12.223,0,14.684.427,18.923,3.283M218.999,202.246c-9.556,7.517.667,21.976,10.416,14.731c4.719-3.507,5.76-10.382,2.063-13.631-4.56-4.007-8.357-4.342-12.479-1.1" fill="none" fill-rule="evenodd" stroke="#00c7ff" stroke-width="6" stroke-linecap="round"/></g></svg>
